<svg id="visual" viewBox="0 0 900 600" width="900" height="600" xmlns="http://www.w3.org/2000/svg" xmlns:xlink="http://www.w3.org/1999/xlink" version="1.1"><rect x="0" y="0" width="900" height="600" fill="#001220"></rect><defs><linearGradient id="grad1_0" x1="33.3%" y1="0%" x2="100%" y2="100%"><stop offset="20%" stop-color="#18d860" stop-opacity="1"></stop><stop offset="80%" stop-color="#18d860" stop-opacity="1"></stop></linearGradient></defs><defs><linearGradient id="grad1_1" x1="33.3%" y1="0%" x2="100%" y2="100%"><stop offset="20%" stop-color="#18d860" stop-opacity="1"></stop><stop offset="80%" stop-color="#009484" stop-opacity="1"></stop></linearGradient></defs><defs><linearGradient id="grad1_2" x1="33.3%" y1="0%" x2="100%" y2="100%"><stop offset="20%" stop-color="#004f69" stop-opacity="1"></stop><stop offset="80%" stop-color="#009484" stop-opacity="1"></stop></linearGradient></defs><defs><linearGradient id="grad1_3" x1="33.3%" y1="0%" x2="100%" y2="100%"><stop offset="20%" stop-color="#004f69" stop-opacity="1"></stop><stop offset="80%" stop-color="#001220" stop-opacity="1"></stop></linearGradient></defs><defs><linearGradient id="grad2_0" x1="0%" y1="0%" x2="66.7%" y2="100%"><stop offset="20%" stop-color="#18d860" stop-opacity="1"></stop><stop offset="80%" stop-color="#18d860" stop-opacity="1"></stop></linearGradient></defs><defs><linearGradient id="grad2_1" x1="0%" y1="0%" x2="66.7%" y2="100%"><stop offset="20%" stop-color="#009484" stop-opacity="1"></stop><stop offset="80%" stop-color="#18d860" stop-opacity="1"></stop></linearGradient></defs><defs><linearGradient id="grad2_2" x1="0%" y1="0%" x2="66.7%" y2="100%"><stop offset="20%" stop-color="#009484" stop-opacity="1"></stop><stop offset="80%" stop-color="#004f69" stop-opacity="1"></stop></linearGradient></defs><defs><linearGradient id="grad2_3" x1="0%" y1="0%" x2="66.7%" y2="100%"><stop offset="20%" stop-color="#001220" stop-opacity="1"></stop><stop offset="80%" stop-color="#004f69" stop-opacity="1"></stop></linearGradient></defs><g transform="translate(900, 0)"><path d="M0 378.6C-65.2 367.6 -130.5 356.7 -188.5 326.5C-246.5 296.3 -297.4 246.9 -327.9 189.3C-358.3 131.7 -368.5 65.8 -378.6 0L0 0Z" fill="#002f47"></path><path d="M0 283.9C-48.9 275.7 -97.8 267.5 -141.4 244.9C-184.9 222.2 -223 185.2 -245.9 142C-268.8 98.8 -276.3 49.4 -283.9 0L0 0Z" fill="#00717e"></path><path d="M0 189.3C-32.6 183.8 -65.2 178.3 -94.2 163.2C-123.3 148.2 -148.7 123.5 -163.9 94.6C-179.2 65.8 -184.2 32.9 -189.3 0L0 0Z" fill="#00b77a"></path><path d="M0 94.6C-16.3 91.9 -32.6 89.2 -47.1 81.6C-61.6 74.1 -74.3 61.7 -82 47.3C-89.6 32.9 -92.1 16.5 -94.6 0L0 0Z" fill="#18d860"></path></g><g transform="translate(0, 600)"><path d="M0 -378.6C63.4 -364.4 126.7 -350.2 185 -320.4C243.3 -290.7 296.4 -245.3 327.9 -189.3C359.3 -133.3 368.9 -66.6 378.6 0L0 0Z" fill="#002f47"></path><path d="M0 -283.9C47.5 -273.3 95 -262.7 138.7 -240.3C182.5 -218 222.3 -184 245.9 -142C269.5 -100 276.7 -50 283.9 0L0 0Z" fill="#00717e"></path><path d="M0 -189.3C31.7 -182.2 63.4 -175.1 92.5 -160.2C121.6 -145.3 148.2 -122.6 163.9 -94.6C179.6 -66.6 184.5 -33.3 189.3 0L0 0Z" fill="#00b77a"></path><path d="M0 -94.6C15.8 -91.1 31.7 -87.6 46.2 -80.1C60.8 -72.7 74.1 -61.3 82 -47.3C89.8 -33.3 92.2 -16.7 94.6 0L0 0Z" fill="#18d860"></path></g></svg>