<svg id="visual" viewBox="0 0 960 540" width="960" height="540" xmlns="http://www.w3.org/2000/svg" xmlns:xlink="http://www.w3.org/1999/xlink" version="1.1"><rect x="0" y="0" width="960" height="540" fill="#001220"></rect><defs><linearGradient id="grad1_0" x1="43.8%" y1="100%" x2="100%" y2="0%"><stop offset="14.444444444444446%" stop-color="#18d860" stop-opacity="1"></stop><stop offset="85.55555555555554%" stop-color="#18d860" stop-opacity="1"></stop></linearGradient></defs><defs><linearGradient id="grad1_1" x1="43.8%" y1="100%" x2="100%" y2="0%"><stop offset="14.444444444444446%" stop-color="#18d860" stop-opacity="1"></stop><stop offset="85.55555555555554%" stop-color="#00b77a" stop-opacity="1"></stop></linearGradient></defs><defs><linearGradient id="grad1_2" x1="43.8%" y1="100%" x2="100%" y2="0%"><stop offset="14.444444444444446%" stop-color="#009484" stop-opacity="1"></stop><stop offset="85.55555555555554%" stop-color="#00b77a" stop-opacity="1"></stop></linearGradient></defs><defs><linearGradient id="grad1_3" x1="43.8%" y1="100%" x2="100%" y2="0%"><stop offset="14.444444444444446%" stop-color="#009484" stop-opacity="1"></stop><stop offset="85.55555555555554%" stop-color="#00717e" stop-opacity="1"></stop></linearGradient></defs><defs><linearGradient id="grad1_4" x1="43.8%" y1="100%" x2="100%" y2="0%"><stop offset="14.444444444444446%" stop-color="#004f69" stop-opacity="1"></stop><stop offset="85.55555555555554%" stop-color="#00717e" stop-opacity="1"></stop></linearGradient></defs><defs><linearGradient id="grad1_5" x1="43.8%" y1="100%" x2="100%" y2="0%"><stop offset="14.444444444444446%" stop-color="#004f69" stop-opacity="1"></stop><stop offset="85.55555555555554%" stop-color="#002f47" stop-opacity="1"></stop></linearGradient></defs><defs><linearGradient id="grad1_6" x1="43.8%" y1="100%" x2="100%" y2="0%"><stop offset="14.444444444444446%" stop-color="#001220" stop-opacity="1"></stop><stop offset="85.55555555555554%" stop-color="#002f47" stop-opacity="1"></stop></linearGradient></defs><defs><linearGradient id="grad2_0" x1="0%" y1="100%" x2="56.3%" y2="0%"><stop offset="14.444444444444446%" stop-color="#18d860" stop-opacity="1"></stop><stop offset="85.55555555555554%" stop-color="#18d860" stop-opacity="1"></stop></linearGradient></defs><defs><linearGradient id="grad2_1" x1="0%" y1="100%" x2="56.3%" y2="0%"><stop offset="14.444444444444446%" stop-color="#00b77a" stop-opacity="1"></stop><stop offset="85.55555555555554%" stop-color="#18d860" stop-opacity="1"></stop></linearGradient></defs><defs><linearGradient id="grad2_2" x1="0%" y1="100%" x2="56.3%" y2="0%"><stop offset="14.444444444444446%" stop-color="#00b77a" stop-opacity="1"></stop><stop offset="85.55555555555554%" stop-color="#009484" stop-opacity="1"></stop></linearGradient></defs><defs><linearGradient id="grad2_3" x1="0%" y1="100%" x2="56.3%" y2="0%"><stop offset="14.444444444444446%" stop-color="#00717e" stop-opacity="1"></stop><stop offset="85.55555555555554%" stop-color="#009484" stop-opacity="1"></stop></linearGradient></defs><defs><linearGradient id="grad2_4" x1="0%" y1="100%" x2="56.3%" y2="0%"><stop offset="14.444444444444446%" stop-color="#00717e" stop-opacity="1"></stop><stop offset="85.55555555555554%" stop-color="#004f69" stop-opacity="1"></stop></linearGradient></defs><defs><linearGradient id="grad2_5" x1="0%" y1="100%" x2="56.3%" y2="0%"><stop offset="14.444444444444446%" stop-color="#002f47" stop-opacity="1"></stop><stop offset="85.55555555555554%" stop-color="#004f69" stop-opacity="1"></stop></linearGradient></defs><defs><linearGradient id="grad2_6" x1="0%" y1="100%" x2="56.3%" y2="0%"><stop offset="14.444444444444446%" stop-color="#002f47" stop-opacity="1"></stop><stop offset="85.55555555555554%" stop-color="#001220" stop-opacity="1"></stop></linearGradient></defs><g transform="translate(960, 540)"><path d="M-432 0C-419.4 -74.4 -406.8 -148.8 -372.4 -215C-338 -281.2 -281.7 -339.3 -216 -374.1C-150.3 -408.9 -75.1 -420.5 0 -432L0 0Z" fill="#002034"></path><path d="M-370.3 0C-359.5 -63.8 -348.7 -127.5 -319.2 -184.3C-289.7 -241.1 -241.5 -290.8 -185.1 -320.7C-128.8 -350.5 -64.4 -360.4 0 -370.3L0 0Z" fill="#003f59"></path><path d="M-308.6 0C-299.6 -53.1 -290.6 -106.3 -266 -153.6C-241.4 -200.9 -201.2 -242.4 -154.3 -267.2C-107.4 -292.1 -53.7 -300.3 0 -308.6L0 0Z" fill="#006075"></path><path d="M-246.9 0C-239.7 -42.5 -232.5 -85 -212.8 -122.9C-193.1 -160.7 -161 -193.9 -123.4 -213.8C-85.9 -233.7 -42.9 -240.3 0 -246.9L0 0Z" fill="#008383"></path><path d="M-185.1 0C-179.7 -31.9 -174.4 -63.8 -159.6 -92.1C-144.8 -120.5 -120.7 -145.4 -92.6 -160.3C-64.4 -175.3 -32.2 -180.2 0 -185.1L0 0Z" fill="#00a681"></path><path d="M-123.4 0C-119.8 -21.3 -116.2 -42.5 -106.4 -61.4C-96.6 -80.4 -80.5 -96.9 -61.7 -106.9C-42.9 -116.8 -21.5 -120.1 0 -123.4L0 0Z" fill="#00c86f"></path><path d="M-61.7 0C-59.9 -10.6 -58.1 -21.3 -53.2 -30.7C-48.3 -40.2 -40.2 -48.5 -30.9 -53.4C-21.5 -58.4 -10.7 -60.1 0 -61.7L0 0Z" fill="#18d860"></path></g><g transform="translate(0, 0)"><path d="M432 0C412.9 70.7 393.9 141.3 360.3 208C326.6 274.7 278.5 337.4 216 374.1C153.5 410.8 76.8 421.4 0 432L0 0Z" fill="#002034"></path><path d="M370.3 0C354 60.6 337.6 121.1 308.8 178.3C280 235.5 238.7 289.2 185.1 320.7C131.6 352.1 65.8 361.2 0 370.3L0 0Z" fill="#003f59"></path><path d="M308.6 0C295 50.5 281.3 100.9 257.3 148.6C233.3 196.2 198.9 241 154.3 267.2C109.7 293.4 54.8 301 0 308.6L0 0Z" fill="#006075"></path><path d="M246.9 0C236 40.4 225.1 80.7 205.9 118.9C186.7 157 159.1 192.8 123.4 213.8C87.7 234.7 43.9 240.8 0 246.9L0 0Z" fill="#008383"></path><path d="M185.1 0C177 30.3 168.8 60.6 154.4 89.1C140 117.7 119.3 144.6 92.6 160.3C65.8 176.1 32.9 180.6 0 185.1L0 0Z" fill="#00a681"></path><path d="M123.4 0C118 20.2 112.5 40.4 102.9 59.4C93.3 78.5 79.6 96.4 61.7 106.9C43.9 117.4 21.9 120.4 0 123.4L0 0Z" fill="#00c86f"></path><path d="M61.7 0C59 10.1 56.3 20.2 51.5 29.7C46.7 39.2 39.8 48.2 30.9 53.4C21.9 58.7 11 60.2 0 61.7L0 0Z" fill="#18d860"></path></g></svg>