<svg id="visual" viewBox="0 0 900 600" width="900" height="600" xmlns="http://www.w3.org/2000/svg" xmlns:xlink="http://www.w3.org/1999/xlink" version="1.1"><rect x="0" y="0" width="900" height="600" fill="#001220"></rect><defs><linearGradient id="grad1_0" x1="33.3%" y1="100%" x2="100%" y2="0%"><stop offset="20%" stop-color="#18d860" stop-opacity="1"></stop><stop offset="80%" stop-color="#18d860" stop-opacity="1"></stop></linearGradient></defs><defs><linearGradient id="grad1_1" x1="33.3%" y1="100%" x2="100%" y2="0%"><stop offset="20%" stop-color="#18d860" stop-opacity="1"></stop><stop offset="80%" stop-color="#00b77a" stop-opacity="1"></stop></linearGradient></defs><defs><linearGradient id="grad1_2" x1="33.3%" y1="100%" x2="100%" y2="0%"><stop offset="20%" stop-color="#009484" stop-opacity="1"></stop><stop offset="80%" stop-color="#00b77a" stop-opacity="1"></stop></linearGradient></defs><defs><linearGradient id="grad1_3" x1="33.3%" y1="100%" x2="100%" y2="0%"><stop offset="20%" stop-color="#009484" stop-opacity="1"></stop><stop offset="80%" stop-color="#00717e" stop-opacity="1"></stop></linearGradient></defs><defs><linearGradient id="grad1_4" x1="33.3%" y1="100%" x2="100%" y2="0%"><stop offset="20%" stop-color="#004f69" stop-opacity="1"></stop><stop offset="80%" stop-color="#00717e" stop-opacity="1"></stop></linearGradient></defs><defs><linearGradient id="grad1_5" x1="33.3%" y1="100%" x2="100%" y2="0%"><stop offset="20%" stop-color="#004f69" stop-opacity="1"></stop><stop offset="80%" stop-color="#002f47" stop-opacity="1"></stop></linearGradient></defs><defs><linearGradient id="grad1_6" x1="33.3%" y1="100%" x2="100%" y2="0%"><stop offset="20%" stop-color="#001220" stop-opacity="1"></stop><stop offset="80%" stop-color="#002f47" stop-opacity="1"></stop></linearGradient></defs><defs><linearGradient id="grad2_0" x1="0%" y1="100%" x2="66.7%" y2="0%"><stop offset="20%" stop-color="#18d860" stop-opacity="1"></stop><stop offset="80%" stop-color="#18d860" stop-opacity="1"></stop></linearGradient></defs><defs><linearGradient id="grad2_1" x1="0%" y1="100%" x2="66.7%" y2="0%"><stop offset="20%" stop-color="#00b77a" stop-opacity="1"></stop><stop offset="80%" stop-color="#18d860" stop-opacity="1"></stop></linearGradient></defs><defs><linearGradient id="grad2_2" x1="0%" y1="100%" x2="66.7%" y2="0%"><stop offset="20%" stop-color="#00b77a" stop-opacity="1"></stop><stop offset="80%" stop-color="#009484" stop-opacity="1"></stop></linearGradient></defs><defs><linearGradient id="grad2_3" x1="0%" y1="100%" x2="66.7%" y2="0%"><stop offset="20%" stop-color="#00717e" stop-opacity="1"></stop><stop offset="80%" stop-color="#009484" stop-opacity="1"></stop></linearGradient></defs><defs><linearGradient id="grad2_4" x1="0%" y1="100%" x2="66.7%" y2="0%"><stop offset="20%" stop-color="#00717e" stop-opacity="1"></stop><stop offset="80%" stop-color="#004f69" stop-opacity="1"></stop></linearGradient></defs><defs><linearGradient id="grad2_5" x1="0%" y1="100%" x2="66.7%" y2="0%"><stop offset="20%" stop-color="#002f47" stop-opacity="1"></stop><stop offset="80%" stop-color="#004f69" stop-opacity="1"></stop></linearGradient></defs><defs><linearGradient id="grad2_6" x1="0%" y1="100%" x2="66.7%" y2="0%"><stop offset="20%" stop-color="#002f47" stop-opacity="1"></stop><stop offset="80%" stop-color="#001220" stop-opacity="1"></stop></linearGradient></defs><g transform="translate(900, 600)"><path d="M-432.7 0C-421.3 -75.6 -409.9 -151.1 -374.7 -216.3C-339.5 -281.5 -280.4 -336.3 -214 -370.7C-147.6 -405 -73.8 -418.8 0 -432.7L0 0Z" fill="#002034"></path><path d="M-370.9 0C-361.1 -64.8 -351.4 -129.6 -321.2 -185.4C-291 -241.3 -240.4 -288.3 -183.4 -317.7C-126.5 -347.1 -63.2 -359 0 -370.9L0 0Z" fill="#003f59"></path><path d="M-309 0C-300.9 -54 -292.8 -108 -267.6 -154.5C-242.5 -201.1 -200.3 -240.2 -152.9 -264.8C-105.4 -289.3 -52.7 -299.2 0 -309L0 0Z" fill="#006075"></path><path d="M-247.2 0C-240.7 -43.2 -234.2 -86.4 -214.1 -123.6C-194 -160.9 -160.2 -192.2 -122.3 -211.8C-84.3 -231.4 -42.2 -239.3 0 -247.2L0 0Z" fill="#008383"></path><path d="M-185.4 0C-180.6 -32.4 -175.7 -64.8 -160.6 -92.7C-145.5 -120.7 -120.2 -144.1 -91.7 -158.9C-63.2 -173.6 -31.6 -179.5 0 -185.4L0 0Z" fill="#00a681"></path><path d="M-123.6 0C-120.4 -21.6 -117.1 -43.2 -107.1 -61.8C-97 -80.4 -80.1 -96.1 -61.1 -105.9C-42.2 -115.7 -21.1 -119.7 0 -123.6L0 0Z" fill="#00c86f"></path><path d="M-61.8 0C-60.2 -10.8 -58.6 -21.6 -53.5 -30.9C-48.5 -40.2 -40.1 -48 -30.6 -53C-21.1 -57.9 -10.5 -59.8 0 -61.8L0 0Z" fill="#18d860"></path></g><g transform="translate(0, 0)"><path d="M432.7 0C422.2 77.2 411.8 154.4 374.7 216.3C337.6 278.3 273.9 325 207 358.5C140.1 392.1 70.1 412.4 0 432.7L0 0Z" fill="#002034"></path><path d="M370.9 0C361.9 66.2 353 132.3 321.2 185.4C289.4 238.5 234.8 278.6 177.4 307.3C120.1 336 60 353.5 0 370.9L0 0Z" fill="#003f59"></path><path d="M309 0C301.6 55.1 294.1 110.3 267.6 154.5C241.2 198.8 195.6 232.2 147.9 256.1C100.1 280 50 294.5 0 309L0 0Z" fill="#006075"></path><path d="M247.2 0C241.3 44.1 235.3 88.2 214.1 123.6C192.9 159 156.5 185.7 118.3 204.9C80.1 224 40 235.6 0 247.2L0 0Z" fill="#008383"></path><path d="M185.4 0C181 33.1 176.5 66.2 160.6 92.7C144.7 119.3 117.4 139.3 88.7 153.7C60 168 30 176.7 0 185.4L0 0Z" fill="#00a681"></path><path d="M123.6 0C120.6 22.1 117.7 44.1 107.1 61.8C96.5 79.5 78.3 92.9 59.1 102.4C40 112 20 117.8 0 123.6L0 0Z" fill="#00c86f"></path><path d="M61.8 0C60.3 11 58.8 22.1 53.5 30.9C48.2 39.8 39.1 46.4 29.6 51.2C20 56 10 58.9 0 61.8L0 0Z" fill="#18d860"></path></g></svg>