<svg id="visual" viewBox="0 0 900 600" width="900" height="600" xmlns="http://www.w3.org/2000/svg" xmlns:xlink="http://www.w3.org/1999/xlink" version="1.1"><path d="M0 67L64 67L64 121L129 121L129 55L193 55L193 103L257 103L257 235L321 235L321 205L386 205L386 235L450 235L450 199L514 199L514 79L579 79L579 175L643 175L643 247L707 247L707 229L771 229L771 235L836 235L836 247L900 247L900 199L900 0L900 0L836 0L836 0L771 0L771 0L707 0L707 0L643 0L643 0L579 0L579 0L514 0L514 0L450 0L450 0L386 0L386 0L321 0L321 0L257 0L257 0L193 0L193 0L129 0L129 0L64 0L64 0L0 0Z" fill="#18d860"></path><path d="M0 337L64 337L64 259L129 259L129 229L193 229L193 445L257 445L257 505L321 505L321 319L386 319L386 463L450 463L450 349L514 349L514 343L579 343L579 433L643 433L643 505L707 505L707 511L771 511L771 301L836 301L836 307L900 307L900 301L900 197L900 245L836 245L836 233L771 233L771 227L707 227L707 245L643 245L643 173L579 173L579 77L514 77L514 197L450 197L450 233L386 233L386 203L321 203L321 233L257 233L257 101L193 101L193 53L129 53L129 119L64 119L64 65L0 65Z" fill="#00717e"></path><path d="M0 601L64 601L64 601L129 601L129 601L193 601L193 601L257 601L257 601L321 601L321 601L386 601L386 601L450 601L450 601L514 601L514 601L579 601L579 601L643 601L643 601L707 601L707 601L771 601L771 601L836 601L836 601L900 601L900 601L900 299L900 305L836 305L836 299L771 299L771 509L707 509L707 503L643 503L643 431L579 431L579 341L514 341L514 347L450 347L450 461L386 461L386 317L321 317L321 503L257 503L257 443L193 443L193 227L129 227L129 257L64 257L64 335L0 335Z" fill="#001220"></path></svg>